<?xml version="1.0" encoding="UTF-8" standalone="no"?>
<!-- Created with Inkscape (http://www.inkscape.org/) -->

<svg
   width="905.1026"
   height="200.00002"
   viewBox="0 0 239.47507 52.91667"
   version="1.1"
   id="svg1"
   xml:space="preserve"
   xmlns="http://www.w3.org/2000/svg"
   xmlns:svg="http://www.w3.org/2000/svg"><defs
     id="defs1"><radialGradient
       id="paint0_radial_11078_89942"
       cx="0"
       cy="0"
       r="1"
       gradientUnits="userSpaceOnUse"
       gradientTransform="matrix(-39.761135,15.082401,-19.63802,-51.770932,38.9291,24.7771)"><stop
         id="stop11" /><stop
         offset="1"
         stop-color="#666666"
         id="stop12" /></radialGradient><linearGradient
       id="paint1_linear_11078_89942"
       x1="12.4455"
       y1="0"
       x2="12.4455"
       y2="38.2393"
       gradientUnits="userSpaceOnUse"
       gradientTransform="translate(15.81811,-10.282276)"><stop
         id="stop13" /><stop
         offset="1"
         stop-color="#585858"
         id="stop14" /></linearGradient><radialGradient
       id="paint2_radial_11078_89942"
       cx="0"
       cy="0"
       r="1"
       gradientUnits="userSpaceOnUse"
       gradientTransform="matrix(21.613021,13.950701,-55.43208,85.877741,10.5013,16.0083)"><stop
         stop-opacity="0.8"
         id="stop15" /><stop
         offset="1"
         stop-color="#585858"
         id="stop16" /></radialGradient></defs><g
     id="layer1"><circle
       style="fill:#ffffff;stroke-width:0.376595"
       id="path12"
       cx="26.458334"
       cy="26.458332"
       r="26.458334" /><g
       style="fill:none"
       id="g1"
       transform="matrix(1.1681909,0,0,1.1681909,-0.06131317,-7.0657346)"><path
         opacity="0.52"
         d="m 27.3125,43 c -8.8366,0 -16,-2.9101 -16,-6.5 0,-3.5899 7.1634,-6.5 16,-6.5 8.8366,0 16,2.9101 16,6.5 0,3.5899 -7.1634,6.5 -16,6.5 z"
         fill="#181a1d"
         id="path1" /><path
         fill-rule="evenodd"
         clip-rule="evenodd"
         d="m 33.2981,10.2273 -3.797,-2.58299 -0.967,1.34202 C 23.2027,8.97465 16.797,12.7037 12.2538,19.009 7.71059,25.3143 6.29602,32.4386 8.13142,37.3022 L 7.16641,38.6414 10.92,41.1948 c 0.1445,0.1133 0.2935,0.2222 0.4469,0.3265 5.6832,3.8661 15.2946,0.055 21.4676,-8.5122 6.173,-8.5672 6.57,-18.6463 0.8868,-22.5123 -0.1388,-0.0944 -0.2799,-0.1843 -0.4232,-0.2695 z"
         fill="url(#paint0_radial_11078_89942)"
         id="path2"
         style="fill:url(#paint0_radial_11078_89942)" /><ellipse
         cx="28.263611"
         cy="8.8373289"
         rx="12.445501"
         ry="19.119604"
         transform="matrix(0.82682793,0.56245495,-0.58459286,0.81132681,0,0)"
         fill="url(#paint1_linear_11078_89942)"
         id="ellipse2"
         style="fill:url(#paint1_linear_11078_89942)" /><path
         d="M 27.109,29.5611 C 21.555,37.2693 12.9073,40.6982 7.794,37.2198 2.68065,33.7414 3.0379,24.6729 8.59195,16.9647 14.146,9.25653 22.7936,5.82761 27.907,9.306 c 5.1133,3.4784 4.7561,12.5469 -0.798,20.2551 z M 9.9774,17.9072 C 5.25447,24.4619 4.37444,32.5913 8.72262,35.5492 14.3091,39.0795 21.7391,35.6757 26.4621,29.121 31.185,22.5663 31.6687,14.0323 26.6361,10.8788 22.288,7.92093 14.7003,11.3525 9.9774,17.9072 Z"
         fill="url(#paint2_radial_11078_89942)"
         id="path3"
         style="fill:url(#paint2_radial_11078_89942)" /><path
         d="M 22.3752,22.3204 C 22.2603,22.2422 22.209,22.0865 22.234,21.8936 l 0.1329,-1.013 c 0.0197,-0.1507 -0.0205,-0.273 -0.1104,-0.3342 -0.09,-0.0612 -0.2214,-0.0568 -0.361,0.0136 l -0.8021,0.4018 c -0.2622,0.1312 -0.51,0.1408 -0.6798,0.0253 l -5.4093,-3.6797 c -0.6716,0.6137 -1.3187,1.3038 -1.9262,2.0643 l 5.1069,3.474 c 0.0899,0.0612 0.2186,0.0596 0.3572,-0.0044 l 1.0603,-0.4877 c 0.1323,-0.0612 0.2559,-0.0627 0.3415,-0.0045 l 0.0197,0.0134 c 0.09,0.0612 0.1307,0.1827 0.1104,0.3343 l -0.1328,1.013 c -0.025,0.1929 0.0258,0.3482 0.1412,0.4267 l 4.1684,2.8356 c 0.5276,-0.8148 0.9736,-1.6418 1.3373,-2.4649 z"
         fill="#000000"
         id="path4" /><path
         d="m 12.7395,26.2341 c 0.0899,0.0612 0.2186,0.0597 0.3572,-0.0043 l 1.0603,-0.4877 c 0.1323,-0.0613 0.2559,-0.0627 0.3415,-0.0045 l 0.0198,0.0134 c 0.0899,0.0612 0.1306,0.1827 0.1103,0.3342 l -0.1328,1.013 c -0.025,0.1929 0.0258,0.3482 0.1412,0.4268 l 5.6489,3.8427 c 0.727,-0.5713 1.4353,-1.2339 2.1065,-1.9745 l -5.4219,-3.6883 c -0.1149,-0.0782 -0.1662,-0.2338 -0.1412,-0.4267 l 0.1329,-1.013 c 0.0197,-0.1507 -0.0205,-0.273 -0.1104,-0.3342 -0.09,-0.0612 -0.2214,-0.0568 -0.361,0.0135 l -0.802,0.4019 c -0.2623,0.1311 -0.5101,0.1408 -0.6799,0.0253 L 11.373,21.8983 c -0.4871,0.867 -0.885,1.7396 -1.1887,2.5988 z"
         fill="#000000"
         id="path5" /><path
         d="m 23.5912,19.461 c 0.0899,0.0612 0.2186,0.0596 0.3572,-0.0044 l 1.0603,-0.4876 c 0.1323,-0.0613 0.2559,-0.0628 0.3415,-0.0046 l 0.0198,0.0135 c 0.0899,0.0611 0.1306,0.1827 0.1103,0.3342 l -0.1328,1.013 c -0.025,0.1929 0.0258,0.3482 0.1412,0.4267 l 1.0741,0.7307 c 0.5797,-2.9205 -0.0105,-5.4666 -1.8431,-6.7132 -1.8327,-1.2467 -4.4969,-0.9145 -7.1228,0.6141 z"
         fill="#000000"
         id="path6" /><path
         d="m 11.4865,28.7599 c -0.115,-0.0782 -0.1662,-0.2338 -0.1412,-0.4267 l 0.1328,-1.013 c 0.0198,-0.1507 -0.0204,-0.2731 -0.1104,-0.3342 -0.0899,-0.0612 -0.2214,-0.0568 -0.361,0.0135 l -0.802,0.4019 C 9.94247,27.5325 9.69468,27.5422 9.52488,27.4267 L 9.50179,27.411 c -0.26911,2.4903 0.37878,4.6043 1.99731,5.7054 1.6186,1.101 3.8846,0.9693 6.2009,-0.1285 z"
         fill="#000000"
         id="path7" /><path
         d="m 21.7463,21.4766 c -0.1149,-0.0782 -0.1662,-0.2338 -0.1412,-0.4267 l 0.1328,-1.013 c 0.0198,-0.1508 -0.0204,-0.2731 -0.1103,-0.3343 -0.09,-0.0611 -0.2214,-0.0568 -0.361,0.0136 l -0.8021,0.4019 c -0.2622,0.1311 -0.51,0.1408 -0.6798,0.0253 l -5.4094,-3.6798 c -0.6715,0.6137 -1.3186,1.3039 -1.9261,2.0644 l 5.1068,3.4739 c 0.09,0.0612 0.2187,0.0597 0.3573,-0.0044 l 1.0603,-0.4876 c 0.1323,-0.0613 0.2559,-0.0628 0.3415,-0.0045 l 0.0197,0.0134 c 0.09,0.0612 0.1307,0.1827 0.1104,0.3342 l -0.1328,1.013 c -0.025,0.1929 0.0258,0.3482 0.1412,0.4268 l 4.1684,2.8355 c 0.5276,-0.8148 0.9736,-1.6417 1.3373,-2.4648 z"
         fill="#ffffff"
         id="path8" /><path
         d="m 12.1106,25.3904 c 0.0899,0.0612 0.2186,0.0596 0.3572,-0.0044 l 1.0603,-0.4876 c 0.1323,-0.0613 0.2559,-0.0628 0.3415,-0.0046 l 0.0197,0.0135 c 0.09,0.0611 0.1307,0.1827 0.1104,0.3342 l -0.1328,1.013 c -0.025,0.1929 0.0258,0.3482 0.1412,0.4267 l 5.6489,3.8427 c 0.727,-0.5713 1.4353,-1.2339 2.1065,-1.9745 L 16.3416,24.8612 C 16.2267,24.783 16.1754,24.6273 16.2004,24.4344 l 0.1329,-1.013 c 0.0197,-0.1507 -0.0205,-0.273 -0.1104,-0.3342 -0.09,-0.0612 -0.2214,-0.0568 -0.361,0.0136 l -0.8021,0.4018 c -0.2622,0.1312 -0.51,0.1408 -0.6798,0.0253 l -3.6359,-2.4733 c -0.4871,0.867 -0.88498,1.7396 -1.18872,2.5988 z"
         fill="#ffffff"
         id="path9" /><path
         d="m 22.9623,18.6172 c 0.0899,0.0612 0.2186,0.0597 0.3572,-0.0043 l 1.0603,-0.4877 c 0.1323,-0.0613 0.2559,-0.0627 0.3415,-0.0045 l 0.0198,0.0134 c 0.0899,0.0612 0.1306,0.1827 0.1103,0.3342 l -0.1328,1.013 c -0.025,0.1929 0.0258,0.3482 0.1412,0.4268 l 1.0741,0.7306 c 0.5797,-2.9204 -0.0105,-5.4665 -1.8431,-6.7132 -1.8327,-1.2467 -4.4969,-0.9144 -7.1228,0.6141 z"
         fill="#ffffff"
         id="path10" /><path
         d="m 10.8576,27.9162 c -0.115,-0.0782 -0.1662,-0.2339 -0.1412,-0.4268 l 0.1328,-1.013 c 0.0197,-0.1507 -0.0204,-0.273 -0.1104,-0.3342 -0.0899,-0.0612 -0.2214,-0.0568 -0.361,0.0136 l -0.802,0.4018 C 9.31357,26.6888 9.06577,26.6984 8.89598,26.5829 L 8.87289,26.5672 c -0.26912,2.4904 0.37877,4.6044 1.99731,5.7054 1.6186,1.1011 3.8846,0.9693 6.2009,-0.1285 z"
         fill="#ffffff"
         id="path11" /></g><path
       d="m 80.27968,25.52582 q 0,3.785727 -1.085613,6.931221 -1.085613,3.117658 -3.061985,5.288883 -1.837191,2.059881 -4.342452,3.201167 -2.477424,1.113449 -5.261047,1.113449 -2.421752,0 -4.398125,-0.528888 -1.948536,-0.528889 -3.98058,-1.642338 V 52.91667 H 52.916666 V 10.355074 h 5.233212 v 3.256839 q 2.087717,-1.753682 4.676486,-2.922804 2.616606,-1.1969576 5.567246,-1.1969576 5.622919,0 8.740576,4.2589436 3.145494,4.231106 3.145494,11.774725 z m -5.400228,0.139181 q 0,-5.622919 -1.9207,-8.406542 -1.9207,-2.783623 -5.901281,-2.783623 -2.254734,0 -4.537305,0.974269 -2.282571,0.974268 -4.370288,2.560933 v 17.620333 q 2.226898,1.002104 3.813563,1.363975 1.614501,0.361871 3.646546,0.361871 4.370288,0 6.819876,-2.95064 2.449589,-2.95064 2.449589,-8.740576 z M 115.79871,25.52582 q 0,3.785727 -1.08562,6.931221 -1.08561,3.117658 -3.06198,5.288883 -1.83719,2.059881 -4.34245,3.201167 -2.47743,1.113449 -5.26105,1.113449 -2.421752,0 -4.398124,-0.528888 -1.948536,-0.528889 -3.980581,-1.642338 V 52.91667 H 88.435694 V 10.355074 h 5.233211 v 3.256839 q 2.087718,-1.753682 4.676487,-2.922804 2.616608,-1.1969576 5.567248,-1.1969576 5.62292,0 8.74057,4.2589436 3.1455,4.231106 3.1455,11.774725 z m -5.40023,0.139181 q 0,-5.622919 -1.9207,-8.406542 -1.9207,-2.783623 -5.90128,-2.783623 -2.25474,0 -4.537307,0.974269 -2.28257,0.974268 -4.370288,2.560933 v 17.620333 q 2.226899,1.002104 3.813564,1.363975 1.614501,0.361871 3.646541,0.361871 4.37029,0 6.81988,-2.95064 2.44959,-2.95064 2.44959,-8.740576 z M 153.93434,4.8991735 H 139.12547 V 41.448143 h -5.51158 V 4.8991735 H 118.80502 V -2.9467046e-6 h 35.12932 z m 25.52582,21.0163535 q 0,7.599291 -3.89707,11.997415 -3.89707,4.398124 -10.43859,4.398124 -6.59718,0 -10.49426,-4.398124 -3.86923,-4.398124 -3.86923,-11.997415 0,-7.599291 3.86923,-11.997415 3.89708,-4.4259606 10.49426,-4.4259606 6.54152,0 10.43859,4.4259606 3.89707,4.398124 3.89707,11.997415 z m -5.40023,0 q 0,-6.040462 -2.36608,-8.963266 -2.36608,-2.95064 -6.56935,-2.95064 -4.25894,0 -6.62502,2.95064 -2.33824,2.922804 -2.33824,8.963266 0,5.845608 2.36608,8.879757 2.36608,3.006313 6.59718,3.006313 4.17544,0 6.54152,-2.978477 2.39391,-3.006312 2.39391,-8.907593 z m 35.71389,6.56935 q 0,4.258943 -3.5352,6.986894 -3.50736,2.72795 -9.6035,2.72795 -3.45169,0 -6.34666,-0.80725 -2.86713,-0.835087 -4.81567,-1.809355 v -5.873445 h 0.27837 q 2.47742,1.865028 5.51157,2.978477 3.03415,1.085613 5.81777,1.085613 3.45169,0 5.40023,-1.113449 1.94854,-1.11345 1.94854,-3.507365 0,-1.837192 -1.05778,-2.783623 -1.05778,-0.946432 -4.06409,-1.614502 -1.11345,-0.250526 -2.9228,-0.584561 -1.78152,-0.334034 -3.25684,-0.723742 -4.09193,-1.085612 -5.81778,-3.17333 -1.69801,-2.115553 -1.69801,-5.177538 0,-1.9207 0.77942,-3.61871 0.80725,-1.69801 2.42175,-3.034149 1.55883,-1.308303 3.95275,-2.059881 2.42175,-0.7794147 5.40022,-0.7794147 2.78363,0 5.62292,0.6959057 2.86713,0.66807 4.76,1.642338 v 5.595082 h -0.27836 q -2.00421,-1.47532 -4.87134,-2.477425 -2.86714,-1.02994 -5.62292,-1.02994 -2.86713,0 -4.84351,1.113449 -1.97637,1.085613 -1.97637,3.256839 0,1.9207 1.19696,2.894968 1.16912,0.974268 3.78573,1.586665 1.44748,0.334035 3.229,0.668069 1.80935,0.334035 3.00631,0.612397 3.64655,0.835087 5.62292,2.867132 1.97637,2.059881 1.97637,5.455901 z m 29.70125,0 q 0,4.258943 -3.5352,6.986894 -3.50737,2.72795 -9.6035,2.72795 -3.45169,0 -6.34666,-0.80725 -2.86713,-0.835087 -4.81567,-1.809355 v -5.873445 h 0.27836 q 2.47743,1.865028 5.51158,2.978477 3.03415,1.085613 5.81777,1.085613 3.45169,0 5.40023,-1.113449 1.94853,-1.11345 1.94853,-3.507365 0,-1.837192 -1.05777,-2.783623 -1.05778,-0.946432 -4.06409,-1.614502 -1.11345,-0.250526 -2.92281,-0.584561 -1.78151,-0.334034 -3.25683,-0.723742 -4.09193,-1.085612 -5.81778,-3.17333 -1.69801,-2.115553 -1.69801,-5.177538 0,-1.9207 0.77942,-3.61871 0.80725,-1.69801 2.42175,-3.034149 1.55883,-1.308303 3.95274,-2.059881 2.42176,-0.7794147 5.40023,-0.7794147 2.78363,0 5.62292,0.6959057 2.86713,0.66807 4.76,1.642338 v 5.595082 h -0.27837 q -2.0042,-1.47532 -4.87134,-2.477425 -2.86713,-1.02994 -5.62291,-1.02994 -2.86714,0 -4.84351,1.113449 -1.97637,1.085613 -1.97637,3.256839 0,1.9207 1.19696,2.894968 1.16912,0.974268 3.78572,1.586665 1.44749,0.334035 3.22901,0.668069 1.80935,0.334035 3.00631,0.612397 3.64655,0.835087 5.62292,2.867132 1.97637,2.059881 1.97637,5.455901 z"
       id="text12"
       style="font-size:57.0086px;font-family:Sans;-inkscape-font-specification:Sans;fill:#ffffff;stroke-width:1.18768"
       aria-label="ppToss" /></g></svg>
